<svg xmlns="http://www.w3.org/2000/svg" xmlns:xlink="http://www.w3.org/1999/xlink" width="478.773" height="201.46" viewBox="0 0 478.773 201.46">
  <defs>
    <linearGradient id="linear-gradient" x1="1" y1="0.5" x2="0" y2="0.5" gradientUnits="objectBoundingBox">
      <stop offset="0.015" stop-color="#900145"/>
      <stop offset="0.211" stop-color="#520144"/>
      <stop offset="0.277" stop-color="#271685"/>
      <stop offset="0.388" stop-color="#242d90"/>
      <stop offset="0.474" stop-color="#3972b2"/>
      <stop offset="0.56" stop-color="#48b599"/>
      <stop offset="0.655" stop-color="#2a8628"/>
      <stop offset="0.778" stop-color="#89c81d"/>
      <stop offset="0.89" stop-color="#fcd10c"/>
      <stop offset="1" stop-color="#f50607"/>
    </linearGradient>
  </defs>
  <g id="Group_4" data-name="Group 4" transform="translate(-187.632 -291.81)">
    <g id="Group_1" data-name="Group 1">
      <path id="Path_2" data-name="Path 2" d="M226.366,492.527h-3.045L235.113,463.3h2.7l11.717,29.222h-3.083l-3.008-7.676h-14.1Zm4.008-10.4H242.4l-6.009-15.519Z" fill="#fff"/>
      <path id="Path_3" data-name="Path 3" d="M261.71,492.527h-2.776V463.3h8.016a15.842,15.842,0,0,1,3.72.413,8.085,8.085,0,0,1,2.967,1.342,6.217,6.217,0,0,1,1.945,2.413,8.531,8.531,0,0,1,.7,3.633,7.71,7.71,0,0,1-.54,2.93,7.279,7.279,0,0,1-1.464,2.291,7.031,7.031,0,0,1-2.2,1.549,9.047,9.047,0,0,1-2.772.742l7.975,13.909h-3.39l-7.555-13.662H261.71Zm0-16.22h4.817a8.745,8.745,0,0,0,5.162-1.3,4.487,4.487,0,0,0,1.813-3.9,5.328,5.328,0,0,0-.5-2.435,4.266,4.266,0,0,0-1.386-1.609,6.09,6.09,0,0,0-2.158-.909,12.832,12.832,0,0,0-2.813-.289H261.71Z" fill="#fff"/>
      <path id="Path_4" data-name="Path 4" d="M290.191,492.527h-2.776V463.3h2.776Z" fill="#fff"/>
      <path id="Path_5" data-name="Path 5" d="M302.83,463.3h8.133a14.38,14.38,0,0,1,3.121.351,8.155,8.155,0,0,1,2.832,1.2,6.435,6.435,0,0,1,2.045,2.291,7.54,7.54,0,0,1,.79,3.631,6.413,6.413,0,0,1-1.321,4.026,6.114,6.114,0,0,1-3.525,2.248v.083a7.005,7.005,0,0,1,4.4,2.208,7.184,7.184,0,0,1,1.75,5.1,7.633,7.633,0,0,1-.712,3.322,7.164,7.164,0,0,1-2.017,2.56,9.456,9.456,0,0,1-3.193,1.631,14.384,14.384,0,0,1-4.231.577H302.83Zm2.776,12.8H311.2a8.535,8.535,0,0,0,2.023-.249,5.457,5.457,0,0,0,1.869-.846,4.44,4.44,0,0,0,1.368-1.589,5.207,5.207,0,0,0,.52-2.435,5,5,0,0,0-.52-2.374,4.519,4.519,0,0,0-1.409-1.588,5.769,5.769,0,0,0-2.079-.887,11.54,11.54,0,0,0-2.544-.269h-4.817Zm0,13.867h5.162a13,13,0,0,0,2.873-.309,7.1,7.1,0,0,0,2.39-.991,5.1,5.1,0,0,0,1.637-1.775,5.253,5.253,0,0,0,.618-2.62,5.124,5.124,0,0,0-1.831-4.313,8.268,8.268,0,0,0-5.185-1.424h-5.664Z" fill="#fff"/>
      <path id="Path_6" data-name="Path 6" d="M332.739,463.3h8.132a14.373,14.373,0,0,1,3.121.351,8.139,8.139,0,0,1,2.832,1.2,6.435,6.435,0,0,1,2.045,2.291,7.529,7.529,0,0,1,.79,3.631,6.418,6.418,0,0,1-1.32,4.026,6.114,6.114,0,0,1-3.526,2.248v.083a7,7,0,0,1,4.4,2.208,7.18,7.18,0,0,1,1.75,5.1,7.633,7.633,0,0,1-.712,3.322,7.164,7.164,0,0,1-2.017,2.56,9.461,9.461,0,0,1-3.192,1.631,14.389,14.389,0,0,1-4.231.577h-8.076Zm2.775,12.8H341.1a8.528,8.528,0,0,0,2.023-.249,5.44,5.44,0,0,0,1.869-.846,4.431,4.431,0,0,0,1.368-1.589,5.207,5.207,0,0,0,.52-2.435,5,5,0,0,0-.52-2.374,4.517,4.517,0,0,0-1.408-1.588,5.782,5.782,0,0,0-2.08-.887,11.524,11.524,0,0,0-2.543-.269h-4.818Zm0,13.867h5.163a13.015,13.015,0,0,0,2.873-.309,7.1,7.1,0,0,0,2.389-.991,5.107,5.107,0,0,0,1.638-1.775,5.264,5.264,0,0,0,.617-2.62,5.124,5.124,0,0,0-1.831-4.313,8.266,8.266,0,0,0-5.185-1.424h-5.664Z" fill="#fff"/>
      <path id="Path_7" data-name="Path 7" d="M365.419,489.886h14.606v2.641H362.644V463.3h16.92v2.641H365.419v10.03h13.22v2.642h-13.22Z" fill="#fff"/>
      <path id="Path_8" data-name="Path 8" d="M390.661,492.527h-3.046L399.408,463.3h2.7l11.718,29.222H410.74l-3.008-7.676h-14.1Zm4.008-10.4h12.022l-6.01-15.519Z" fill="#fff"/>
      <path id="Path_9" data-name="Path 9" d="M442.577,488.194h.075V463.3h2.776v29.222h-3.469l-15.88-25.136H426v25.136h-2.776V463.3H426.7Z" fill="#fff"/>
      <path id="Path_10" data-name="Path 10" d="M486.316,468.011a6.862,6.862,0,0,0-2.274-2.127,6.586,6.586,0,0,0-3.352-.8,6.724,6.724,0,0,0-2.042.331,5.768,5.768,0,0,0-1.891,1.011,5.114,5.114,0,0,0-1.368,1.713,5.369,5.369,0,0,0-.521,2.435,4.769,4.769,0,0,0,.5,2.311,5.018,5.018,0,0,0,1.327,1.547,7.452,7.452,0,0,0,1.885,1.053q1.053.413,2.208.826,1.425.493,2.863,1.073a10.085,10.085,0,0,1,2.6,1.507,7.144,7.144,0,0,1,1.882,2.351,7.909,7.909,0,0,1,.731,3.613,8.5,8.5,0,0,1-.781,3.777,7.782,7.782,0,0,1-2.023,2.62,8.158,8.158,0,0,1-2.842,1.526,10.8,10.8,0,0,1-3.218.5,11.625,11.625,0,0,1-2.468-.267,10.685,10.685,0,0,1-2.349-.806,9.479,9.479,0,0,1-2.083-1.362,9.65,9.65,0,0,1-1.7-1.9l2.39-1.9a7.586,7.586,0,0,0,2.487,2.622,6.671,6.671,0,0,0,3.757,1.053,6.87,6.87,0,0,0,2.12-.351,5.811,5.811,0,0,0,3.372-2.848,5.867,5.867,0,0,0,0-4.995,5.21,5.21,0,0,0-1.484-1.691,8.823,8.823,0,0,0-2.12-1.136q-1.2-.453-2.506-.908c-.9-.3-1.784-.647-2.659-1.032a8.916,8.916,0,0,1-2.35-1.506,7.066,7.066,0,0,1-1.678-2.291,8.949,8.949,0,0,1,.154-6.976,7.575,7.575,0,0,1,2.064-2.518,8.411,8.411,0,0,1,2.813-1.444,10.753,10.753,0,0,1,3.046-.454,9.92,9.92,0,0,1,4.739,1.053,8.25,8.25,0,0,1,2.967,2.5Z" fill="#fff"/>
      <path id="Path_11" data-name="Path 11" d="M503.005,489.886h14.606v2.641H500.229V463.3H517.15v2.641H503.005v10.03h13.219v2.642H503.005Z" fill="#fff"/>
      <path id="Path_12" data-name="Path 12" d="M569.367,492.527h-2.776V463.3h8.017a15.84,15.84,0,0,1,3.719.413,8.086,8.086,0,0,1,2.967,1.342,6.217,6.217,0,0,1,1.945,2.413,8.531,8.531,0,0,1,.7,3.633,7.729,7.729,0,0,1-.539,2.93,7.3,7.3,0,0,1-1.465,2.291,7.032,7.032,0,0,1-2.2,1.549,9.039,9.039,0,0,1-2.772.742l7.976,13.909h-3.391l-7.555-13.662h-4.623Zm0-16.22h4.817a8.751,8.751,0,0,0,5.163-1.3,4.489,4.489,0,0,0,1.812-3.9,5.342,5.342,0,0,0-.5-2.435,4.277,4.277,0,0,0-1.387-1.609,6.082,6.082,0,0,0-2.158-.909,12.826,12.826,0,0,0-2.813-.289h-4.933Z" fill="#fff"/>
      <path id="Path_13" data-name="Path 13" d="M597.845,489.886h14.606v2.641H595.069V463.3H611.99v2.641H597.845v10.03h13.219v2.642H597.845Z" fill="#fff"/>
      <path id="Path_14" data-name="Path 14" d="M632.028,492.527h-2.773V465.946h-9.136V463.3h21.045v2.641h-9.136Z" fill="#fff"/>
      <path id="Path_15" data-name="Path 15" d="M663.862,468.011a6.871,6.871,0,0,0-2.274-2.127,6.59,6.59,0,0,0-3.353-.8,6.734,6.734,0,0,0-2.042.331,5.778,5.778,0,0,0-1.891,1.011,5.124,5.124,0,0,0-1.367,1.713,5.37,5.37,0,0,0-.521,2.435,4.757,4.757,0,0,0,.5,2.311,5.014,5.014,0,0,0,1.326,1.547,7.469,7.469,0,0,0,1.885,1.053q1.055.413,2.208.826,1.427.493,2.864,1.073a10.1,10.1,0,0,1,2.6,1.507,7.17,7.17,0,0,1,1.882,2.351,7.909,7.909,0,0,1,.73,3.613,8.482,8.482,0,0,1-.781,3.777,7.758,7.758,0,0,1-2.023,2.62,8.162,8.162,0,0,1-2.841,1.526,10.8,10.8,0,0,1-3.218.5,11.612,11.612,0,0,1-2.468-.267,10.686,10.686,0,0,1-2.349-.806,9.455,9.455,0,0,1-2.083-1.362,9.686,9.686,0,0,1-1.7-1.9l2.39-1.9a7.6,7.6,0,0,0,2.487,2.622,6.676,6.676,0,0,0,3.758,1.053,6.875,6.875,0,0,0,2.12-.351,5.814,5.814,0,0,0,3.371-2.848,5.857,5.857,0,0,0,0-4.995,5.208,5.208,0,0,0-1.483-1.691,8.844,8.844,0,0,0-2.12-1.136q-1.2-.453-2.506-.908-1.35-.454-2.66-1.032a8.894,8.894,0,0,1-2.349-1.506,7.067,7.067,0,0,1-1.678-2.291,8.949,8.949,0,0,1,.154-6.976,7.584,7.584,0,0,1,2.063-2.518,8.415,8.415,0,0,1,2.814-1.444,10.746,10.746,0,0,1,3.045-.454,9.917,9.917,0,0,1,4.739,1.053,8.25,8.25,0,0,1,2.967,2.5Z" fill="#fff"/>
      <path id="Path_16" data-name="Path 16" d="M212.763,481.212a14.947,14.947,0,0,1-.388,1.588,12.107,12.107,0,0,1-2.236,4.037,10.9,10.9,0,0,1-3.563,2.761,11.329,11.329,0,0,1-9.444,0,10.94,10.94,0,0,1-3.566-2.761,12.137,12.137,0,0,1-2.233-4.037,15.722,15.722,0,0,1,0-9.726,12.373,12.373,0,0,1,2.233-4.057,10.8,10.8,0,0,1,3.566-2.783,11.339,11.339,0,0,1,9.444,0,10.761,10.761,0,0,1,3.563,2.783,12.343,12.343,0,0,1,2.236,4.057,14.637,14.637,0,0,1,.377,1.546h3.03a15.882,15.882,0,0,0-.785-2.854,14.825,14.825,0,0,0-2.989-4.849,13.927,13.927,0,0,0-20.308,0,14.759,14.759,0,0,0-2.989,4.849,18.066,18.066,0,0,0,0,12.3,14.763,14.763,0,0,0,2.989,4.85,13.929,13.929,0,0,0,20.308,0,14.83,14.83,0,0,0,2.989-4.85,15.882,15.882,0,0,0,.785-2.854Z" fill="#fff"/>
      <path id="Path_17" data-name="Path 17" d="M552.1,481.212a14.724,14.724,0,0,1-.388,1.588,12.073,12.073,0,0,1-2.236,4.037,10.887,10.887,0,0,1-3.563,2.761,11.327,11.327,0,0,1-9.443,0,10.93,10.93,0,0,1-3.566-2.761,12.119,12.119,0,0,1-2.233-4.037,15.7,15.7,0,0,1,0-9.726,12.355,12.355,0,0,1,2.233-4.057,10.793,10.793,0,0,1,3.566-2.783,11.337,11.337,0,0,1,9.443,0,10.751,10.751,0,0,1,3.563,2.783,12.307,12.307,0,0,1,2.236,4.057,14.66,14.66,0,0,1,.378,1.546h3.029a15.881,15.881,0,0,0-.785-2.854,14.791,14.791,0,0,0-2.989-4.849,13.925,13.925,0,0,0-20.307,0,14.742,14.742,0,0,0-2.989,4.849,18.067,18.067,0,0,0,0,12.3,14.747,14.747,0,0,0,2.989,4.85,13.928,13.928,0,0,0,20.307,0,14.8,14.8,0,0,0,2.989-4.85,15.721,15.721,0,0,0,.785-2.854Z" fill="#fff"/>
    </g>
    <g id="Group_3" data-name="Group 3">
      <path id="Path_18" data-name="Path 18" d="M421.475,345.613c-6.462,2.264-9.208.106-11.553-6.923-7.718-23.136-23.029-36.015-45.093-37.824-21.141-1.733-40.991,10.711-49.732,31.817-8.9,21.491-6.719,42.165,7.345,59.981,13.812,17.5,31.645,23.722,51.9,18.123,18.91-5.227,30.972-19.31,37.03-40a26.916,26.916,0,0,0,.508-3.855c.81-5.913,4.976-4.948,8.131-4.276,3.977.847,2.12,4.5,1.5,7.068-6.848,28.329-23.806,44.365-48.824,50.389-31.829,7.663-64.762-16.8-71.138-52.741-5.68-32.015,12.786-63.043,43.349-72.836C379.212,283.545,414.395,306.8,421.475,345.613Z" fill="#fefefe"/>
      <path id="Path_19" data-name="Path 19" d="M483.029,360.311c-11.58-.853-19.777.711-27.426,5.08-6.777,3.871-12.233,9.339-12.267,18.562-.038,9.961,3.326,18.479,11.226,23.834,13.26,8.989,38.891,7.246,51.327-3.15a30.876,30.876,0,0,0,10.155-16.583c.778-3.067,2.293-3.32,4.524-2.657,2.668.794,1.6,3.072,1.282,4.722-2.644,13.782-11.032,21.931-22.1,26.556a57.626,57.626,0,0,1-40.13,1.754c-13.758-4.252-23.966-20.154-22.927-35.011,1.027-14.676,12.207-26.363,28.519-29.212a129.839,129.839,0,0,1,18.176-1.5c5.278-.17,10.287-.848,14.877-4.129,8.181-5.847,15.165-13.1,14.459-24.778-.724-11.971-8.87-17.407-18.063-21.076-20.741-8.278-34.47-2.768-45.924,19.016-1.447,2.752-2.461,4.085-5.193,3.062-4.06-1.519-1.407-4.031-.645-6.077,11.388-30.552,53.036-36.6,71.146-10.356,8.541,12.376,6.045,30.7-5.874,41.68C500.008,357.568,490.679,361.346,483.029,360.311Z" fill="#fefefd"/>
      <g id="Group_2" data-name="Group 2">
        <path id="Path_20" data-name="Path 20" d="M538.5,298.17v9.614h-1.5V298.17H534.7v-1.589h6.076v1.589Z" fill="#fefefe"/>
        <path id="Path_21" data-name="Path 21" d="M542.567,307.784l2.1-12.044,3.419,8.706,3.542-8.706,1.883,12.044h-1.542l-.961-6.762-2.948,7.277-2.864-7.285-1.071,6.77Z" fill="#fefefe"/>
      </g>
    </g>
    <rect id="Rectangle_3" data-name="Rectangle 3" width="478.442" height="5.254" transform="translate(187.798 440.469)" fill="url(#linear-gradient)"/>
  </g>
</svg>
